<svg width="12" height="13" viewBox="0 0 12 13" fill="none" xmlns="http://www.w3.org/2000/svg">
<path fill-rule="evenodd" clip-rule="evenodd" d="M3.94872 1.52734C4.16114 1.52734 4.33333 1.69954 4.33333 1.91196V2.55298H7.66667V1.91196C7.66667 1.69954 7.83887 1.52734 8.05128 1.52734C8.2637 1.52734 8.4359 1.69954 8.4359 1.91196V2.55298H9.58974C10.3686 2.55298 11 3.18438 11 3.96324V10.1171C11 10.896 10.3686 11.5273 9.58974 11.5273H2.41026C1.63139 11.5273 1 10.896 1 10.1171V3.96324C1 3.18438 1.63139 2.55298 2.41026 2.55298H3.5641V1.91196C3.5641 1.69954 3.7363 1.52734 3.94872 1.52734ZM3.5641 3.32222H2.41026C2.05623 3.32222 1.76923 3.60921 1.76923 3.96324V10.1171C1.76923 10.4711 2.05623 10.7581 2.41026 10.7581H9.58974C9.94377 10.7581 10.2308 10.4711 10.2308 10.1171V3.96324C10.2308 3.60921 9.94377 3.32222 9.58974 3.32222H8.4359V3.96324C8.4359 4.17566 8.2637 4.34786 8.05128 4.34786C7.83887 4.34786 7.66667 4.17566 7.66667 3.96324V3.32222H4.33333V3.96324C4.33333 4.17566 4.16114 4.34786 3.94872 4.34786C3.7363 4.34786 3.5641 4.17566 3.5641 3.96324V3.32222ZM3.05128 6.01452C3.05128 5.80211 3.22348 5.62991 3.4359 5.62991H8.5641C8.77652 5.62991 8.94872 5.80211 8.94872 6.01452C8.94872 6.22694 8.77652 6.39914 8.5641 6.39914H3.4359C3.22348 6.39914 3.05128 6.22694 3.05128 6.01452Z" fill="#8D9096"/>
</svg>
