<svg width="18" height="18" viewBox="0 0 18 18" fill="none" xmlns="http://www.w3.org/2000/svg">
<path fill-rule="evenodd" clip-rule="evenodd" d="M9.0002 3C9.66294 3 10.2002 3.53726 10.2002 4.2C10.2002 4.86274 9.66294 5.4 9.0002 5.4C8.33745 5.4 7.8002 4.86274 7.8002 4.2C7.8002 3.53726 8.33745 3 9.0002 3ZM9.0002 7.8C9.66294 7.8 10.2002 8.33726 10.2002 9C10.2002 9.66274 9.66294 10.2 9.00019 10.2C8.33745 10.2 7.80019 9.66274 7.80019 9C7.80019 8.33726 8.33745 7.8 9.0002 7.8ZM9.00019 12.6C9.66294 12.6 10.2002 13.1373 10.2002 13.8C10.2002 14.4627 9.66294 15 9.00019 15C8.33745 15 7.80019 14.4627 7.80019 13.8C7.80019 13.1373 8.33745 12.6 9.00019 12.6Z" fill="#082029"/>
</svg>
