<svg width="12" height="13" viewBox="0 0 12 13" fill="none" xmlns="http://www.w3.org/2000/svg">
<path fill-rule="evenodd" clip-rule="evenodd" d="M4.97436 2.29657C3.20422 2.29657 1.76923 3.73156 1.76923 5.5017C1.76923 7.27185 3.20422 8.70683 4.97436 8.70683C6.7445 8.70683 8.17949 7.27185 8.17949 5.5017C8.17949 3.73156 6.7445 2.29657 4.97436 2.29657ZM1 5.5017C1 3.30673 2.77938 1.52734 4.97436 1.52734C7.16934 1.52734 8.94872 3.30673 8.94872 5.5017C8.94872 6.46068 8.60907 7.34033 8.04351 8.02693L10.8874 10.8708C11.0376 11.021 11.0376 11.2645 10.8874 11.4147C10.7371 11.5649 10.4936 11.5649 10.3434 11.4147L7.49958 8.57085C6.81299 9.13642 5.93334 9.47606 4.97436 9.47606C2.77938 9.47606 1 7.69668 1 5.5017Z" fill="#8D9096"/>
</svg>
